HIERARCHY
ROOT Hips
{
	OFFSET 0.000000 0.000000 0.000000
	CHANNELS 6 Xposition Yposition Zposition Xrotation Yrotation Zrotation
	JOINT LeftUpLeg_virtual
	{
		OFFSET 0.000000 0.000000 0.000000
		CHANNELS 3 Xrotation Yrotation Zrotation
		JOINT LeftUpLeg
		{
			OFFSET 10.205400 -3.823500 0.155100
			CHANNELS 3 Xrotation Yrotation Zrotation
			JOINT LeftLeg
			{
				OFFSET 0.708757 -12.982077 0.567790
				CHANNELS 3 Xrotation Yrotation Zrotation
				JOINT LeftFoot
				{
					OFFSET -0.708756 -10.717838 -2.184338
					CHANNELS 3 Xrotation Yrotation Zrotation
					JOINT LeftToeBase
					{
						OFFSET 0.108149 -7.191104 7.560241
						CHANNELS 3 Xrotation Yrotation Zrotation
						JOINT LeftToe_End
						{
							OFFSET 0.070230 0.081724 4.490308
							CHANNELS 3 Xrotation Yrotation Zrotation
							End Site
							{
								OFFSET 0 0 0
							}
						}
					}
				}
			}
		}
	}
	JOINT RightUpLeg_virtual
	{
		OFFSET 0.000000 0.000000 0.000000
		CHANNELS 3 Xrotation Yrotation Zrotation
		JOINT RightUpLeg
		{
			OFFSET -10.205400 -3.823500 0.005500
			CHANNELS 3 Xrotation Yrotation Zrotation
			JOINT RightLeg
			{
				OFFSET -0.708756 -12.982134 0.610632
				CHANNELS 3 Xrotation Yrotation Zrotation
				JOINT RightFoot
				{
					OFFSET 0.708754 -10.717769 -1.945823
					CHANNELS 3 Xrotation Yrotation Zrotation
					JOINT RightToeBase
					{
						OFFSET -0.108140 -7.191069 7.372968
						CHANNELS 3 Xrotation Yrotation Zrotation
						JOINT RightToe_End
						{
							OFFSET -0.070227 0.081735 4.479403
							CHANNELS 3 Xrotation Yrotation Zrotation
							End Site
							{
								OFFSET 0 0 0
							}
						}
					}
				}
			}
		}
	}
	JOINT Spine_virtual
	{
		OFFSET 0.000000 0.000000 0.000000
		CHANNELS 3 Xrotation Yrotation Zrotation
		JOINT Spine
		{
			OFFSET 0.000000 6.876099 0.125700
			CHANNELS 3 Xrotation Yrotation Zrotation
			JOINT Spine1
			{
				OFFSET 0.000000 5.730043 0.104720
				CHANNELS 3 Xrotation Yrotation Zrotation
				JOINT Spine1_split
				{
					OFFSET 0.000000 5.730043 0.104720
					CHANNELS 3 Xrotation Yrotation Zrotation
					JOINT Spine2
					{
						OFFSET 0.000000 5.730043 0.104720
						CHANNELS 3 Xrotation Yrotation Zrotation
						JOINT Neck_virtual
						{
							OFFSET 0.000000 0.000000 0.000000
							CHANNELS 3 Xrotation Yrotation Zrotation
							JOINT Neck
							{
								OFFSET 0.000000 10.314075 0.188496
								CHANNELS 3 Xrotation Yrotation Zrotation
								JOINT Head
								{
									OFFSET 0.000000 7.643700 -2.377400
									CHANNELS 3 Xrotation Yrotation Zrotation
									JOINT HeadTop_End
									{
										OFFSET 0.000000 43.788605 -13.619600
										CHANNELS 3 Xrotation Yrotation Zrotation
										End Site
										{
											OFFSET 0 0 0
										}
									}
								}
							}
						}
						JOINT LeftShoulder_virtual
						{
							OFFSET 0.000000 0.000000 0.000000
							CHANNELS 3 Xrotation Yrotation Zrotation
							JOINT LeftShoulder
							{
								OFFSET 2.196100 4.412489 0.087492
								CHANNELS 3 Xrotation Yrotation Zrotation
								JOINT LeftShoulder_split
								{
									OFFSET 2.196100 4.412489 0.087492
									CHANNELS 3 Xrotation Yrotation Zrotation
									JOINT LeftArm
									{
										OFFSET 8.771219 -2.981674 -0.026999
										CHANNELS 3 Xrotation Yrotation Zrotation
										JOINT LeftForeArm
										{
											OFFSET 8.512804 0.000000 -0.000000
											CHANNELS 3 Xrotation Yrotation Zrotation
											JOINT LeftHand
											{
												OFFSET 18.484802 0.000000 -0.000000
												CHANNELS 3 Xrotation Yrotation Zrotation
												End Site
												{
													OFFSET 0 0 0
												}
											}
										}
									}
								}
							}
						}
						JOINT RightShoulder_virtual
						{
							OFFSET 0.000000 0.000000 0.000000
							CHANNELS 3 Xrotation Yrotation Zrotation
							JOINT RightShoulder
							{
								OFFSET -2.196100 4.412496 0.070690
								CHANNELS 3 Xrotation Yrotation Zrotation
								JOINT RightShoulder_split
								{
									OFFSET -2.196100 4.412496 0.070690
									CHANNELS 3 Xrotation Yrotation Zrotation
									JOINT RightArm
									{
										OFFSET -8.771282 -2.981682 -0.094208
										CHANNELS 3 Xrotation Yrotation Zrotation
										JOINT RightForeArm
										{
											OFFSET -8.494598 0.000000 0.000000
											CHANNELS 3 Xrotation Yrotation Zrotation
											JOINT RightHand
											{
												OFFSET -18.483803 0.000000 0.000001
												CHANNELS 3 Xrotation Yrotation Zrotation
												End Site
												{
													OFFSET 0 0 0
												}
											}
										}
									}
								}
							}
						}
					}
				}
			}
		}
	}
}
MOTION
Frames: 7
Frame Time: 0.03333333
-15.147147 32.825367 -15.542913 0.000000 0.000000 0.000000 4.586734 1.705374 -0.735731 -54.413368 -1.672219 8.878529 57.061876 7.469767 0.756135 13.231734 10.575490 -9.449404 -1.233115 0.032287 -1.499892 0.000000 0.000000 0.000000 4.586734 1.705374 -0.735731 12.835934 -12.547477 -6.947822 18.312080 -8.153063 -0.888676 -18.383633 -7.834923 17.999888 -9.762587 -0.023978 0.755457 0.000000 0.000000 0.000000 4.586734 1.705374 -0.735731 1.912910 0.323291 -6.340371 2.892908 2.233308 -0.852139 0.000000 0.000000 0.000000 0.000000 0.000000 0.000000 2.920207 2.206553 -0.824568 -0.099923 1.610647 1.773294 -3.993609 9.216923 4.690504 0.000000 0.000000 0.000000 2.920207 2.206553 -0.824568 1.380878 -3.785538 -10.633361 0.000000 0.000000 0.000000 -12.976635 21.713964 -36.552061 0.000025 -68.123576 0.000031 0.000000 0.000000 0.000000 2.920207 2.206553 -0.824568 0.756988 -2.615170 10.735800 0.000000 0.000000 0.000000 -16.932710 -17.380267 42.253015 -0.000003 11.334220 -0.000016 0.000000 0.000000 0.000000 
-14.677574 33.367214 -15.966394 0.000000 0.000000 0.000000 4.764159 0.083996 -0.228523 -48.088251 -2.089413 11.855757 60.418603 7.115116 0.936818 11.178203 14.795875 -4.589615 -6.907200 0.856882 -7.540864 0.000000 0.000000 0.000000 4.764159 0.083996 -0.228523 8.409609 -12.023716 -11.407624 19.547542 -5.193522 -0.105738 -14.994743 -5.756856 19.584661 -10.688681 0.017440 -0.510904 0.000000 0.000000 0.000000 4.764159 0.083996 -0.228523 1.618206 1.131149 -6.951144 2.374025 3.259591 -1.400063 0.000000 0.000000 0.000000 0.000000 0.000000 0.000000 2.430398 3.238700 -1.364456 -0.224067 1.432990 2.227389 -4.033163 8.722014 5.409510 0.000000 0.000000 0.000000 2.430398 3.238700 -1.364456 1.467533 -4.240654 -11.592375 0.000000 0.000000 0.000000 5.654165 26.367486 -43.866825 0.000032 -67.796745 0.000040 0.000000 0.000000 0.000000 2.430398 3.238700 -1.364456 0.734778 -2.719264 10.596665 0.000000 0.000000 0.000000 -18.801311 -15.324286 39.607079 0.000001 12.657100 -0.000012 0.000000 0.000000 0.000000 
-14.121482 33.632908 -16.299109 0.000000 0.000000 0.000000 5.520512 -1.077217 -0.008162 -41.454973 -2.168413 15.415138 59.711262 6.941339 1.133178 8.935761 19.619560 -1.879984 -7.212321 0.848795 -7.370739 0.000000 0.000000 0.000000 5.520512 -1.077217 -0.008162 3.998285 -11.033629 -15.451503 20.723515 -1.233923 0.897919 -12.501373 -4.625225 21.191575 -11.255219 0.055338 -1.930722 0.000000 0.000000 0.000000 5.520512 -1.077217 -0.008162 1.217225 1.859104 -7.180294 1.667889 4.119295 -1.757984 0.000000 0.000000 0.000000 0.000000 0.000000 0.000000 1.751484 4.109059 -1.720882 -0.329439 1.250091 2.443577 -3.904389 7.989616 5.840145 0.000000 0.000000 0.000000 1.751484 4.109059 -1.720882 1.475787 -4.286670 -11.679641 0.000000 0.000000 0.000000 17.858436 29.300378 -52.334374 -0.000001 -63.835296 -0.000022 0.000000 0.000000 0.000000 1.751484 4.109059 -1.720882 0.694858 -2.907715 10.339709 0.000000 0.000000 0.000000 -19.916142 -14.501846 37.786751 -0.000005 13.690953 -0.000002 0.000000 0.000000 0.000000 
-13.487990 33.655228 -16.565096 0.000000 0.000000 0.000000 6.527305 -1.089794 -0.228075 -35.447534 -1.685914 19.180448 55.752983 7.031318 1.251576 6.376042 24.045165 0.550171 -3.513396 0.244423 -3.971074 0.000000 0.000000 0.000000 6.527305 -1.089794 -0.228075 1.320145 -10.017442 -17.981400 20.294809 1.920273 1.471106 -10.654872 -4.372418 22.918131 -12.095022 0.077054 -2.271179 0.000000 0.000000 0.000000 6.527305 -1.089794 -0.228075 0.798517 2.375720 -6.831526 0.935644 4.729537 -1.887955 0.000000 0.000000 0.000000 0.000000 0.000000 0.000000 1.033651 4.731258 -1.854249 -0.441559 1.030674 2.502779 -3.693572 6.947908 5.993749 0.000000 0.000000 0.000000 1.033651 4.731258 -1.854249 1.413560 -3.961277 -10.979285 0.000000 0.000000 0.000000 23.536373 32.038297 -58.288527 0.000006 -58.385564 0.000025 0.000000 0.000000 0.000000 1.033651 4.731258 -1.854249 0.656536 -3.133585 10.169099 0.000000 0.000000 0.000000 -20.170496 -14.903025 36.224335 -0.000009 14.706338 0.000011 0.000000 0.000000 0.000000 
-12.751648 33.384911 -16.795378 0.000000 0.000000 0.000000 7.570413 0.507306 -0.810768 -31.701855 -1.130307 23.270740 49.943146 6.981899 1.022462 6.617754 25.727550 2.533749 -1.861092 0.068709 -2.111529 0.000000 0.000000 0.000000 7.570413 0.507306 -0.810768 1.013936 -9.368842 -19.224553 18.912512 2.525461 1.506306 -10.368520 -4.482561 24.836974 -11.997751 0.089376 -2.443924 0.000000 0.000000 0.000000 7.570413 0.507306 -0.810768 0.402049 2.553810 -5.977861 0.246710 4.906920 -1.825422 0.000000 0.000000 0.000000 0.000000 0.000000 0.000000 0.336283 4.918685 -1.798403 -0.569945 0.777698 2.477530 -3.419246 5.726206 5.935750 0.000000 0.000000 0.000000 0.336283 4.918685 -1.798403 1.324390 -3.512355 -9.976258 0.000000 0.000000 0.000000 25.521253 34.898397 -60.939802 0.000006 -52.600424 0.000004 0.000000 0.000000 0.000000 0.336283 4.918685 -1.798403 0.632758 -3.308877 10.128486 0.000000 0.000000 0.000000 -19.911554 -15.913011 34.488968 0.000008 15.415465 -0.000008 0.000000 0.000000 0.000000 
-11.896761 32.828411 -17.050596 0.000000 0.000000 0.000000 8.692386 3.744686 -1.391298 -30.769995 -1.338402 28.015267 44.347722 6.067953 0.195690 11.295524 22.391477 0.799569 -6.249824 0.675896 -6.472452 0.000000 0.000000 0.000000 8.692386 3.744686 -1.391298 2.507156 -9.320504 -20.048994 17.783316 0.653585 1.226962 -12.135033 -5.150340 26.665048 -10.787006 0.070141 -2.169092 0.000000 0.000000 0.000000 8.692386 3.744686 -1.391298 0.060519 2.393972 -5.157148 -0.355799 4.587631 -1.709306 0.000000 0.000000 0.000000 0.000000 0.000000 0.000000 -0.283455 4.605722 -1.687240 -0.815997 0.510347 2.395206 -2.922510 4.431054 5.691236 0.000000 0.000000 0.000000 -0.283455 4.605722 -1.687240 1.256917 -3.186829 -9.214788 0.000000 0.000000 0.000000 24.813191 37.801378 -60.386167 -0.000010 -46.103480 -0.000010 0.000000 0.000000 0.000000 -0.283455 4.605722 -1.687240 0.603885 -3.462545 9.954600 0.000000 0.000000 0.000000 -19.777419 -17.268918 33.057252 0.000002 15.522259 0.000001 0.000000 0.000000 0.000000 
-10.902122 32.061394 -17.377798 0.000000 0.000000 0.000000 10.024468 8.198443 -1.750262 -32.365125 -2.745818 32.684306 43.405470 5.250643 -0.823622 12.885705 14.788668 -5.641672 -10.973113 0.612544 -6.082134 0.000000 0.000000 0.000000 10.024468 8.198443 -1.750262 4.702335 -9.800690 -21.120557 17.690687 -2.689280 0.890961 -15.632073 -6.399049 28.331309 -8.527203 0.013218 -0.943735 0.000000 0.000000 0.000000 10.024468 8.198443 -1.750262 -0.220702 2.050936 -4.746658 -0.898081 3.974727 -1.651769 0.000000 0.000000 0.000000 0.000000 0.000000 0.000000 -0.835449 3.998518 -1.631641 -1.298811 0.209412 2.240810 -2.214205 2.959960 5.321055 0.000000 0.000000 0.000000 -0.835449 3.998518 -1.631641 1.216191 -2.990605 -8.767588 0.000000 0.000000 0.000000 21.771411 40.002335 -57.452403 -0.000012 -38.901698 0.000007 0.000000 0.000000 0.000000 -0.835449 3.998518 -1.631641 0.558413 -3.614664 9.481944 0.000000 0.000000 0.000000 -19.764838 -19.003502 32.254493 0.000005 16.979592 -0.000007 0.000000 0.000000 0.000000 
